<?xml version="1.0" encoding="UTF-8"?> <svg xmlns="http://www.w3.org/2000/svg" viewBox="0 0 182.78 38.84"> <defs> <style>.cls-1{fill:#f9452e;}</style> </defs> <g id="Слой_2" data-name="Слой 2"> <g id="Слой_4" data-name="Слой 4"> <path class="cls-1" d="M.29,29.57q.24-5.73.24-9.48c0-3-.09-6.29-.28-10H8.8q-.29,5.31-.28,10,0,3.93.24,9.48Z"></path> <path class="cls-1" d="M25.94,29.57q.21-5.24.21-9.65a3.81,3.81,0,0,0-.76-2.5,2.47,2.47,0,0,0-3.94.13,5.15,5.15,0,0,0-1,2.87c0,1.8-.07,3.08-.07,3.84,0,1.62,0,3.39.14,5.31H12q.29-5.13.29-9.69T12,10.12c1.57.07,2.77.11,3.6.11s2.08,0,3.6-.11l1,5.24a8,8,0,0,1,2.57-4.23A6.4,6.4,0,0,1,26.9,9.76a7.06,7.06,0,0,1,3.71,1A6.14,6.14,0,0,1,33,13.25a7.88,7.88,0,0,1,.81,3.6V22q0,4.74.17,7.59Z"></path> <path class="cls-1" d="M53.62,10.12h6.84q-.18,5.84-.18,16.6a12.92,12.92,0,0,1-1.69,7,10,10,0,0,1-4.47,3.94,15.15,15.15,0,0,1-6.2,1.23,17.63,17.63,0,0,1-6.06-1,9.57,9.57,0,0,1-4.06-2.62l1.61-5.45A16.33,16.33,0,0,0,43,31.37a13.13,13.13,0,0,0,3.56.48q6.06,0,6.06-5.13a9.1,9.1,0,0,1,0-1.07c0-.14,0-.33,0-.57s0-.54,0-.92q-1.83,5.06-7.7,5.06a7.34,7.34,0,0,1-4.26-1.29,8.46,8.46,0,0,1-2.9-3.47,11.16,11.16,0,0,1-1-4.83,11.83,11.83,0,0,1,1-5,8.78,8.78,0,0,1,2.88-3.58,7,7,0,0,1,4.17-1.32q6,0,7.84,4.24Zm-3.21,13A3.73,3.73,0,0,0,52,21.93a3.37,3.37,0,0,0,.64-2.08,4.19,4.19,0,0,0-1-3.16,4.14,4.14,0,0,0-3-.94,3.39,3.39,0,0,0-2.7,1.14,4.3,4.3,0,0,0-1,3A3.47,3.47,0,0,0,46,22.5a3.8,3.8,0,0,0,2.69,1A4.38,4.38,0,0,0,50.41,23.14Z"></path> <path class="cls-1" d="M82.16,20.66H70.55A4.2,4.2,0,0,0,72,23.21a4.67,4.67,0,0,0,3.19,1A6.73,6.73,0,0,0,78,23.6,5.17,5.17,0,0,0,80.06,22a57.18,57.18,0,0,0,6.34,2.53,8.27,8.27,0,0,1-4,4,16.64,16.64,0,0,1-7.57,1.48c-4,0-7-.93-9-2.8A9.73,9.73,0,0,1,63,19.77a9.6,9.6,0,0,1,2.88-7.23q2.89-2.77,9-2.78A15.31,15.31,0,0,1,81.13,11a9.41,9.41,0,0,1,4.09,3.37,8.75,8.75,0,0,1,1.43,4.94,9.44,9.44,0,0,1-.07,1.38ZM72.4,15.82a3.71,3.71,0,0,0-1.61,1.85H79.2a3.85,3.85,0,0,0-1.39-1.83,4.1,4.1,0,0,0-2.49-.7A5.66,5.66,0,0,0,72.4,15.82Z"></path> <path class="cls-1" d="M97.41,15.39Q98.91,10,104.86,10a14.34,14.34,0,0,1,2,.14l-1.14,8a12.42,12.42,0,0,0-4.2-1,3.62,3.62,0,0,0-3,1.21,5.09,5.09,0,0,0-1,3.25v0l0,2.35c0,1.69,0,3.57.14,5.63H89.14q.28-5.13.29-9.69t-.29-9.76c1.57.07,2.77.11,3.6.11s2.08,0,3.6-.11Z"></path> <path class="cls-1" d="M110.34,29.57q.25-5.73.25-9.48c0-3-.09-6.29-.28-10h8.55q-.28,5.31-.29,10c0,2.62.09,5.78.25,9.48Z"></path> <path class="cls-1" d="M143.76,19.81c0,3.49.09,6.75.25,9.76-1.52-.07-2.72-.1-3.6-.1s-2,0-3.6.1l-1-5.24a8,8,0,0,1-2.56,4.23,6.43,6.43,0,0,1-4.07,1.37,7,7,0,0,1-3.7-.95,6,6,0,0,1-2.37-2.54,8,8,0,0,1-.8-3.6V17.71q0-4.74-.18-7.59h8q-.23,5.24-.22,10.37a3.8,3.8,0,0,0,.77,2.49,2.41,2.41,0,0,0,1.94.93,2.5,2.5,0,0,0,1.94-1,4.83,4.83,0,0,0,1-2.69v-.82c.05-1.85.07-3.14.07-3.85,0-1.64,0-3.46-.14-5.45H144C143.85,13.11,143.76,16.34,143.76,19.81Z"></path> <path class="cls-1" d="M174.47,29.57q.28-4.66.29-9.65a3.72,3.72,0,0,0-.8-2.52,2.71,2.71,0,0,0-2.12-.9,2.61,2.61,0,0,0-2.09,1.07,4.78,4.78,0,0,0-.87,3.09v0q0,6.3.18,8.94h-8c.14-3.49.22-6.71.22-9.65a3.81,3.81,0,0,0-.77-2.5,2.43,2.43,0,0,0-1.94-.92,2.58,2.58,0,0,0-2.09,1.05,5.24,5.24,0,0,0-1,2.87c0,1.8-.07,3.08-.07,3.84q0,2.43.15,5.31H147q.28-5.13.29-9.69T147,10.12c1.57.07,2.77.11,3.6.11s2.08,0,3.6-.11l1.07,5.27a7.88,7.88,0,0,1,2.6-4.26A6.53,6.53,0,0,1,162,9.76a6.43,6.43,0,0,1,6.74,5.52,8.12,8.12,0,0,1,2.74-4,6.94,6.94,0,0,1,4.38-1.5,6.22,6.22,0,0,1,5,2.16,8.86,8.86,0,0,1,1.81,5.89v5.92c0,2.68,0,4.63.08,5.84Z"></path> <path class="cls-1" d="M1.09,6.91A3.91,3.91,0,0,1,0,4,4,4,0,0,1,1.09,1.14,4.39,4.39,0,0,1,4.42,0,4.42,4.42,0,0,1,7.7,1.16,3.93,3.93,0,0,1,8.84,4,3.88,3.88,0,0,1,7.73,6.91,4.47,4.47,0,0,1,4.42,8,4.46,4.46,0,0,1,1.09,6.91Z"></path> <path class="cls-1" d="M111.14,6.91A3.94,3.94,0,0,1,110.06,4a4,4,0,0,1,1.08-2.89,5.32,5.32,0,0,1,6.61,0A3.93,3.93,0,0,1,118.89,4a3.91,3.91,0,0,1-1.1,2.88,5.53,5.53,0,0,1-6.65,0Z"></path> </g> </g> </svg> 