<?xml version="1.0" encoding="UTF-8"?> <svg xmlns="http://www.w3.org/2000/svg" width="960" height="120" viewBox="0 0 960 120" fill="none"> <g clip-path="url(#clip0_628_527)"> <path fill-rule="evenodd" clip-rule="evenodd" d="M215.04 34.56C243.36 104.64 248.16 117.6 248.16 117.6C248.16 117.6 241.44 118.08 233.28 118.08H218.4L200.16 72C190.08 46.56 181.44 25.92 181.44 25.92C181.44 25.92 179.52 30.24 177.6 35.52C173.76 46.08 173.28 50.88 175.2 55.2C175.68 56.64 179.04 60.48 182.4 63.84C185.76 67.2 189.12 71.04 189.6 72C192.48 77.76 191.52 83.04 187.2 88.32C182.88 93.12 179.52 94.56 171.36 95.52C157.44 96.96 154.08 97.44 150.24 99.84C145.44 102.24 141.6 107.04 139.2 113.76L137.28 118.08L107.04 118.56L107.52 116.64C109.44 109.92 114.24 99.36 116.64 95.52C122.88 85.44 131.52 78.72 141.6 75.36C146.4 73.92 148.8 73.44 156 73.44C166.08 73.44 172.32 74.88 178.56 79.2C184.32 83.04 184.8 83.52 186.24 82.56C188.64 81.12 188.16 78.24 184.8 74.88C179.52 69.6 171.36 66.72 153.12 63.84C144.48 62.4 140.16 58.08 140.16 50.88C140.16 47.52 144.96 33.12 154.08 8.16L156 3.36L201.6 2.88L215.04 34.56ZM94.08 2.4L66.72 69.6L40.32 2.4H0L47.04 117.12H84L131.04 2.4H94.08ZM324.48 117.6H364.8L341.28 82.08C354.72 74.88 362.4 62.4 362.4 46.08C362.4 19.68 342.72 2.88 311.52 2.88H258.24V117.6H295.68V88.8H305.76L324.48 117.6ZM324.48 46.08C324.48 54.24 319.68 59.52 309.12 59.52H295.2V32.64H309.12C319.68 32.64 324.48 37.44 324.48 46.08ZM458.88 2.4L431.52 69.6L405.12 2.4H364.8L411.84 117.12H448.8L495.84 2.4H458.88ZM596.64 120C631.2 120 648.48 102.24 648.48 81.12C648.48 38.88 587.04 50.4 587.04 36.48C587.04 32.64 590.4 29.28 601.44 29.28C611.04 29.28 621.6 32.16 632.64 37.92L644.16 10.08C632.64 3.36 617.28 0 601.92 0C567.36 0 550.08 17.28 550.08 38.88C550.08 81.6 611.52 70.08 611.52 84.48C611.52 88.32 607.68 90.72 597.12 90.72C584.64 90.72 570.72 86.4 560.16 80.16L548.16 108.48C559.2 115.2 577.92 120 596.64 120ZM659.52 117.6H696.96V2.4H659.52V117.6ZM773.76 120C810.24 120 836.64 94.56 836.64 60C836.64 25.44 810.24 0 773.76 0C737.28 0 710.88 25.44 710.88 60C710.88 94.56 737.28 120 773.76 120ZM773.76 88.8C759.84 88.8 748.8 77.76 748.8 60C748.8 42.24 759.84 31.2 773.76 31.2C787.68 31.2 798.72 42.24 798.72 60C798.72 77.76 787.68 88.8 773.76 88.8ZM923.52 2.4V54.72L881.28 2.4H850.56V117.12H887.04V65.28L929.28 117.6H960V2.4H923.52ZM499.68 3.36H533.28V14.88C533.28 23.52 533.76 31.68 534.24 33.12C534.72 34.56 537.12 38.4 540 41.28C542.4 44.64 545.28 48.48 545.76 49.92C547.2 54.24 545.28 58.08 540.48 60.96C533.28 65.28 533.28 65.28 533.28 93.6V119.04H499.2V93.6C499.2 72.48 499.68 67.68 501.12 64.32C504.48 56.64 512.64 54.24 528.48 56.16C539.52 57.6 541.92 57.12 541.92 54.24C541.92 51.84 540 50.88 527.52 48C516.96 45.6 513.6 44.16 507.84 38.88C500.64 32.64 499.68 30.24 499.68 13.44V3.36Z" fill="url(#paint0_radial_628_527)"></path> </g> <defs> <radialGradient id="paint0_radial_628_527" cx="0" cy="0" r="1" gradientUnits="userSpaceOnUse" gradientTransform="translate(469 155.958) rotate(-90.8615) scale(199.527 470.812)"> <stop stop-color="#1927DB" stop-opacity="0.2"></stop> <stop offset="1" stop-color="white" stop-opacity="0.2"></stop> </radialGradient> <clipPath id="clip0_628_527"> <rect width="960" height="120" fill="white"></rect> </clipPath> </defs> </svg> 