<?xml version="1.0" encoding="UTF-8"?> <svg xmlns="http://www.w3.org/2000/svg" viewBox="0 0 960 119" fill="none"> <path fill-rule="evenodd" clip-rule="evenodd" d="M215.046 34.3596C243.21 103.542 248.303 116.122 248.303 116.516C248.303 116.743 241.636 116.927 233.489 116.927H218.676L200.197 71.3476C190.034 46.2781 181.549 25.7582 181.341 25.7479C181.134 25.7368 179.411 29.9475 177.513 35.1054C173.749 45.3337 173.151 50.3762 175.189 54.7155C175.799 56.0166 179.05 59.7601 182.413 63.0345C185.776 66.3096 189.002 69.9288 189.583 71.0777C192.463 76.7703 191.678 81.7973 187.087 87.0685C182.885 91.8932 179.578 93.387 171.255 94.2188C157.386 95.6045 154.19 96.2252 150.136 98.3213C145.392 100.773 141.467 105.589 138.869 112.147L137.12 116.56L107.023 116.958L107.536 115.288C109.508 108.871 114.121 98.1933 116.526 94.4836C122.888 84.6657 131.387 77.9081 141.639 74.5146C146.566 72.884 148.871 72.5633 155.886 72.531C165.798 72.4847 172.365 74.1799 178.539 78.3795C184.319 82.3107 184.809 82.5114 186.449 81.6245C188.842 80.33 188.309 77.1719 185.175 74.0917C179.881 68.8874 171.704 66.1213 153.457 63.364C144.869 62.0659 140.604 57.7611 140.604 50.3916C140.604 47.2768 145.379 32.9151 154.672 8.07654L156.461 3.29593L202.241 2.90758L215.046 34.3596Z" fill="white"></path> <path d="M94.2196 2.59002L67.0041 68.7976L40.4253 2.59002H0L47.1098 115.904H84.0337L131.143 2.59002H94.2196Z" fill="white"></path> <path d="M324.702 115.904H364.809L341.413 80.9383C354.782 73.9776 362.422 61.675 362.422 45.3255C362.422 19.1014 342.686 2.59002 311.651 2.59002H258.016V115.904H295.577V87.4134H305.762L324.702 115.904ZM324.543 45.3255C324.543 53.5812 319.609 58.5994 309.264 58.5994H295.577V32.0516H309.264C319.609 32.0516 324.543 37.0698 324.543 45.3255Z" fill="white"></path> <path d="M458.729 2.59002L431.513 68.7976L404.935 2.59002H364.509L411.619 115.904H448.543L495.653 2.59002H458.729Z" fill="white"></path> <path d="M596.572 118.494C631.108 118.494 648.456 101.011 648.456 80.2908C648.456 38.5266 586.863 49.858 586.863 36.2604C586.863 32.3753 590.365 29.1378 601.346 29.1378C611.055 29.1378 621.4 31.8897 632.381 37.5554L643.681 9.87448C632.063 3.23753 616.625 0 601.665 0C567.128 0 549.78 17.1589 549.78 38.2029C549.78 80.4527 611.373 68.9595 611.373 83.2046C611.373 87.0896 607.553 89.3559 596.89 89.3559C584.635 89.3559 570.629 85.309 560.125 78.9958L548.029 106.839C559.17 113.799 577.95 118.494 596.572 118.494Z" fill="white"></path> <path d="M659.633 115.904H697.193V2.59002H659.633V115.904Z" fill="white"></path> <path d="M773.685 118.494C809.972 118.494 836.551 93.5647 836.551 59.2469C836.551 24.929 809.972 0 773.685 0C737.397 0 710.819 24.929 710.819 59.2469C710.819 93.5647 737.397 118.494 773.685 118.494ZM773.685 87.5753C759.838 87.5753 748.697 76.8914 748.697 59.2469C748.697 41.6023 759.838 30.9184 773.685 30.9184C787.531 30.9184 798.672 41.6023 798.672 59.2469C798.672 76.8914 787.531 87.5753 773.685 87.5753Z" fill="white"></path> <path d="M923.395 2.59002V54.0668L881.059 2.59002H850.183V115.904H886.789V64.4269L929.124 115.904H960V2.59002H923.395Z" fill="white"></path> <path fill-rule="evenodd" clip-rule="evenodd" d="M533.344 14.5731C533.344 23.1365 533.779 31.3364 534.31 32.7947C534.841 34.253 537.427 37.9765 540.058 41.0701C542.689 44.1636 545.297 47.9454 545.854 49.4738C547.321 53.5036 545.344 57.5572 540.534 60.38C533.327 64.6094 533.344 64.5371 533.344 92.5464V117.654H499.256V92.7384C499.256 71.6983 499.525 67.2327 500.981 64.0269C504.473 56.3437 512.367 54.029 528.394 55.9899C539.387 57.3339 541.608 56.9791 541.608 53.8758C541.608 51.3291 539.575 50.4317 527.202 47.5182C516.581 45.0179 513.134 43.4927 507.321 38.724C500.066 32.771 499.256 30.2588 499.256 13.7069V3.43011H533.344V14.5731Z" fill="white"></path> </svg> 